# xmcd
#
# Track frame offsets:
# 183
# 11130
# 24243
# 36755
# 48215
# 59928
# 70818
# 81823
# 92973
# 106503
# 118113
# 128058
# 138893
# 151253
# 162848
# 174735
# 187208
# 200010
# 211690
# 223648
# 232770
# 242835
# 257313
# 267588
#
# Disc length: 3702 seconds
#
#
# Revision: 3
# Processed by: cddbd v1.5.1PL2 Copyright (c) Steve Scherf et al.
# Submitted via: FreeRIP 2.945 
#
DISCID=4e0e7418
DTITLE=Hank Williams - 24 Country Classics - 1950-1953
DYEAR=1993
DGENRE=Country
TTITLE0=Why Don't You Love Me
TTITLE1=A House Without Love
TTITLE2=They'll Never Take Her Love From Me
TTITLE3=Nobody's Lonesome For Me
TTITLE4=Dear John
TTITLE5=I Can't Help It
TTITLE6=My Heart Would Know
TTITLE7=Crazy Heart
TTITLE8=I'd Still Want You
TTITLE9=Baby We're Really In Love
TTITLE10=Honky Tonk Blues
TTITLE11=Let's Turn Back The Years
TTITLE12=Half As Much
TTITLE13=Window Shopping
TTITLE14=You Win Again
TTITLE15=I Could Never Be Ashamed Of You
TTITLE16=Please Make Up Your Mind
TTITLE17=Kaw-Liga
TTITLE18=Take These Chains From My Heart
TTITLE19=Alone And Foresaken
TTITLE20=Someday You'll Call My Name
TTITLE21=At The First Fall Of Snow
TTITLE22=There's No Room In My Heart For The Blues
TTITLE23=With Tears In My Eyes
EXTD=
EXTT0=
EXTT1=
EXTT2=
EXTT3=
EXTT4=
EXTT5=
EXTT6=
EXTT7=
EXTT8=
EXTT9=
EXTT10=
EXTT11=
EXTT12=
EXTT13=
EXTT14=
EXTT15=
EXTT16=
EXTT17=
EXTT18=
EXTT19=
EXTT20=
EXTT21=
EXTT22=
EXTT23=
PLAYORDER=
